<?xml version="1.0" encoding="UTF-8" standalone="no"?>
<!-- Created with Inkscape (http://www.inkscape.org/) -->

<svg
   width="520"
   height="100"
   viewBox="0 0 137.58355 26.458354"
   version="1.1"
   id="svg5"
   inkscape:version="1.2.2 (732a01da63, 2022-12-09)"
   sodipodi:docname="infoSale Logo Full.svg"
   xmlns:inkscape="http://www.inkscape.org/namespaces/inkscape"
   xmlns:sodipodi="http://sodipodi.sourceforge.net/DTD/sodipodi-0.dtd"
   xmlns="http://www.w3.org/2000/svg"
   xmlns:svg="http://www.w3.org/2000/svg"
   xmlns:rdf="http://www.w3.org/1999/02/22-rdf-syntax-ns#"
   xmlns:cc="http://creativecommons.org/ns#"
   xmlns:dc="http://purl.org/dc/elements/1.1/">
  <title
     id="title2086">infoSale Logo</title>
  <sodipodi:namedview
     id="namedview7"
     pagecolor="#ffffff"
     bordercolor="#000000"
     borderopacity="0.25"
     inkscape:showpageshadow="2"
     inkscape:pageopacity="0"
     inkscape:pagecheckerboard="0"
     inkscape:deskcolor="#d1d1d1"
     inkscape:document-units="mm"
     showgrid="false"
     inkscape:zoom="2.0888418"
     inkscape:cx="196.28102"
     inkscape:cy="65.107849"
     inkscape:window-width="1920"
     inkscape:window-height="1009"
     inkscape:window-x="1912"
     inkscape:window-y="-8"
     inkscape:window-maximized="1"
     inkscape:current-layer="layer1">
    <inkscape:grid
       type="xygrid"
       id="grid2033"
       snapvisiblegridlinesonly="true"
       dotted="false"
       originx="0"
       originy="0"
       enabled="true" />
  </sodipodi:namedview>
  <defs
     id="defs2" />
  <g
     inkscape:label="Layer 1"
     inkscape:groupmode="layer"
     id="layer1">
    <g
       aria-label="nfoSale"
       id="text1037"
       style="font-size:34.639px;font-family:'Century Gothic';-inkscape-font-specification:'Century Gothic, Normal';stroke-width:0.109537;stroke-linecap:round;stroke-linejoin:round"
       transform="translate(-24.318242,-17.593538)">
      <path
         d="m 41.651365,25.17082 h 2.367901 v 3.298146 q 1.42074,-1.89432 3.145925,-2.824566 1.725184,-0.947161 3.754813,-0.947161 2.063456,0 3.653332,1.048642 1.60679,1.048642 2.367901,2.824567 0.76111,1.775925 0.76111,5.530739 v 9.471601 h -2.350986 v -8.778145 q 0,-3.179752 -0.270618,-4.245307 -0.422839,-1.826666 -1.589876,-2.739999 -1.167036,-0.930246 -3.044443,-0.930246 -2.148024,0 -3.856295,1.42074 -1.691357,1.42074 -2.232592,3.518023 -0.338271,1.37 -0.338271,5.006418 v 6.748516 h -2.367901 z"
         id="path1171" />
      <path
         d="m 70.3537,18.067118 v 2.31716 q -1.302345,-0.558148 -2.232592,-0.558148 -0.693456,0 -1.150123,0.287531 -0.456666,0.270617 -0.575061,0.642716 -0.118395,0.355185 -0.118395,1.928147 v 2.486296 h 3.839381 v 2.029628 h -3.856295 v 16.37234 h -2.3679 V 27.200448 H 61.474074 V 25.17082 h 2.418641 v -2.875308 q 0,-1.978888 0.355185,-2.824567 0.372098,-0.845679 1.234691,-1.353086 0.879506,-0.524321 2.114197,-0.524321 1.150123,0 2.756912,0.47358 z"
         id="path1173" />
      <path
         d="m 82.362337,24.697239 q 4.245307,0 7.036047,3.078271 2.537036,2.807653 2.537036,6.647035 0,3.856295 -2.689258,6.748516 -2.672345,2.875307 -6.883825,2.875307 -4.228394,0 -6.917652,-2.875307 -2.672345,-2.892221 -2.672345,-6.748516 0,-3.822468 2.537036,-6.630121 2.79074,-3.095185 7.052961,-3.095185 z m 0,2.31716 q -2.942962,0 -5.057159,2.181851 -2.114197,2.181851 -2.114197,5.277035 0,1.995802 0.964074,3.720987 0.964074,1.725184 2.604691,2.672344 1.640616,0.930247 3.602591,0.930247 1.961974,0 3.602591,-0.930247 1.640617,-0.94716 2.604691,-2.672344 0.964073,-1.725185 0.964073,-3.720987 0,-3.095184 -2.13111,-5.277035 -2.114197,-2.181851 -5.040245,-2.181851 z"
         id="path1175" />
      <path
         d="m 94.151324,38.764889 2.114197,-1.268518 q 2.232591,4.109998 5.158639,4.109998 1.25161,0 2.35099,-0.575061 1.09938,-0.591975 1.67445,-1.572963 0.57506,-0.980987 0.57506,-2.080369 0,-1.251605 -0.84568,-2.452468 -1.16704,-1.657531 -4.26222,-3.991604 -3.112104,-2.350987 -3.873215,-3.399628 -1.319259,-1.759012 -1.319259,-3.805555 0,-1.623703 0.778025,-2.959875 0.778024,-1.336172 2.181851,-2.097283 1.420748,-0.778025 3.078278,-0.778025 1.75901,0 3.28123,0.879506 1.53913,0.862593 3.24741,3.196666 l -2.02963,1.539135 q -1.40383,-1.860493 -2.40173,-2.452468 -0.98099,-0.591975 -2.14802,-0.591975 -1.50531,0 -2.46939,0.913333 -0.947161,0.913333 -0.947161,2.249505 0,0.811852 0.338272,1.572962 0.338271,0.761111 1.234691,1.657531 0.490498,0.47358 3.213578,2.486295 3.2305,2.384814 4.43136,4.245307 1.20087,1.860493 1.20087,3.7379 0,2.706172 -2.06346,4.701974 -2.04654,1.995801 -4.98951,1.995801 -2.266418,0 -4.109998,-1.200863 -1.843579,-1.217778 -3.399628,-4.059258 z"
         id="path1177" />
      <path
         d="m 131.91911,25.17082 v 18.401968 h -2.33407 V 40.40995 q -1.48839,1.809752 -3.34889,2.723085 -1.84358,0.913333 -4.04234,0.913333 -3.90704,0 -6.68086,-2.824567 -2.75692,-2.84148 -2.75692,-6.900738 0,-3.97469 2.79074,-6.799257 2.79074,-2.824567 6.71469,-2.824567 2.26642,0 4.09309,0.964074 1.84358,0.964074 3.23049,2.892221 V 25.17082 Z m -9.4716,1.809752 q -1.97889,0 -3.65333,0.980987 -1.67444,0.964074 -2.67234,2.723086 -0.98099,1.759011 -0.98099,3.720986 0,1.945061 0.9979,3.720986 0.9979,1.775926 2.67234,2.773827 1.69136,0.980987 3.61951,0.980987 1.94506,0 3.68716,-0.980987 1.7421,-0.980988 2.67234,-2.655432 0.94716,-1.674443 0.94716,-3.771727 0,-3.196665 -2.11419,-5.344689 -2.09729,-2.148024 -5.17556,-2.148024 z"
         id="path1179" />
      <path
         d="m 136.8917,18.067118 h 2.3679 v 25.50567 h -2.3679 z"
         id="path1181" />
      <path
         d="m 159.67429,37.466988 1.9958,1.048642 q -0.98099,1.928147 -2.26642,3.112097 -1.28543,1.18395 -2.89222,1.809753 -1.60679,0.608888 -3.63642,0.608888 -4.49901,0 -7.03604,-2.942962 -2.53704,-2.959875 -2.53704,-6.680861 0,-3.50111 2.14802,-6.241109 2.72309,-3.484197 7.28975,-3.484197 4.70198,0 7.50963,3.568765 1.9958,2.520122 2.02963,6.291849 H 145.7375 q 0.0677,3.213579 2.04655,5.277035 1.97889,2.046543 4.88802,2.046543 1.40383,0 2.72309,-0.490494 1.33617,-0.490493 2.26641,-1.302345 0.93025,-0.811852 2.01272,-2.621604 z m 0,-4.955677 q -0.47358,-1.894321 -1.38691,-3.02753 -0.89642,-1.13321 -2.38482,-1.826666 -1.48839,-0.693457 -3.12901,-0.693457 -2.70617,0 -4.65123,1.742099 -1.42074,1.268518 -2.14803,3.805554 z"
         id="path1183"
         style="display:inline" />
    </g>
    <path
       style="font-size:37.3422px;font-family:Consolas;-inkscape-font-specification:'Consolas, Normal';display:inline;opacity:1;fill:#e00000;fill-opacity:1;stroke-width:0.136048;stroke-linecap:round;stroke-linejoin:round"
       d="m 7.4806284,0.61275403 q 0.609208,0 1.134388,0.23108 0.52518,0.21007197 0.9033089,0.60920797 0.399137,0.399137 0.6092087,0.924316 0.231079,0.504172 0.231079,1.11338 0,0.588202 -0.231079,1.113382 -0.2100717,0.525179 -0.6092087,0.924316 -0.3781289,0.399136 -0.9033089,0.630216 -0.52518,0.210071 -1.134388,0.210071 -0.609208,0 -1.134388,-0.210071 Q 5.8210614,5.927572 5.4219244,5.528436 5.0437944,5.129299 4.8127164,4.60412 4.6026444,4.07894 4.6026444,3.490738 q 0,-0.609208 0.210072,-1.11338 0.231078,-0.525179 0.609208,-0.924316 0.399137,-0.399136 0.924316,-0.60920797 0.52518,-0.23108 1.134388,-0.23108 z"
       id="path1205" />
    <path
       style="font-size:37.3422px;font-family:Consolas;-inkscape-font-specification:'Consolas, Normal';display:inline;opacity:1;fill:#1127cf;fill-opacity:1;stroke-width:0.118085;stroke-linecap:round;stroke-linejoin:round"
       d="M 6.0816574,10.10425 H 0.52540743 V 7.723 H 8.9920734 v 15.875 h 5.5562496 v 2.38125 L -0.00375957,25.978262 V 23.598 H 6.0816574 Z"
       id="path1200"
       sodipodi:nodetypes="ccccccccccc" />
  </g>
  <metadata
     id="metadata2084">
    <rdf:RDF>
      <cc:Work
         rdf:about="">
        <dc:title>infoSale Logo</dc:title>
      </cc:Work>
    </rdf:RDF>
  </metadata>
</svg>
